<?xml version="1.0" encoding="UTF-8" ?>
<!DOCTYPE svg PUBLIC "-//W3C//DTD SVG 1.1//EN" "http://www.w3.org/Graphics/SVG/1.1/DTD/svg11.dtd">
<svg width="160pt" height="118pt" viewBox="0 0 160 118" version="1.1" xmlns="http://www.w3.org/2000/svg">
<g id="#f2f2f2ff">
<path fill="#f2f2f2" opacity="1.00" d=" M 0.00 0.00 L 160.00 0.00 L 160.00 118.00 L 128.19 118.00 C 124.60 100.34 110.88 85.27 93.49 80.38 C 103.02 75.12 108.71 63.77 107.01 52.99 C 105.51 40.55 94.45 30.17 81.93 29.51 C 68.81 28.29 55.87 38.04 53.34 50.95 C 50.63 62.28 56.33 74.78 66.50 80.37 C 49.11 85.28 35.39 100.34 31.79 118.00 L 0.00 118.00 L 0.00 0.00 Z" />
</g>
<g id="#34495eff">
<path fill="#34495e" opacity="1.00" d=" M 53.34 50.95 C 55.87 38.04 68.81 28.29 81.93 29.51 C 94.45 30.17 105.51 40.55 107.01 52.99 C 108.71 63.77 103.02 75.12 93.49 80.38 C 110.88 85.27 124.60 100.34 128.19 118.00 L 31.79 118.00 C 35.39 100.34 49.11 85.28 66.50 80.37 C 56.33 74.78 50.63 62.28 53.34 50.95 Z" />
</g>
</svg>
